<mxfile host="app.diagrams.net" agent="Mozilla/5.0 (Windows NT 10.0; Win64; x64) AppleWebKit/537.36 (KHTML, like Gecko) Chrome/125.0.0.0 Safari/537.36" version="24.7.17">
  <diagram name="Page-1" id="PCPDJ8ahFUaHFkuUYoiF">
    <mxGraphModel dx="1434" dy="780" grid="1" gridSize="10" guides="1" tooltips="1" connect="1" arrows="1" fold="1" page="1" pageScale="1" pageWidth="850" pageHeight="1100" math="0" shadow="0">
      <root>
        <mxCell id="0" />
        <mxCell id="1" parent="0" />
        <mxCell id="dK85CmOqpb26UfGCBJQE-1" value="" style="edgeStyle=orthogonalEdgeStyle;rounded=0;orthogonalLoop=1;jettySize=auto;html=1;" parent="1" target="dK85CmOqpb26UfGCBJQE-3" edge="1">
          <mxGeometry relative="1" as="geometry">
            <mxPoint x="410" y="60" as="sourcePoint" />
          </mxGeometry>
        </mxCell>
        <mxCell id="dK85CmOqpb26UfGCBJQE-2" value="" style="edgeStyle=orthogonalEdgeStyle;rounded=0;orthogonalLoop=1;jettySize=auto;html=1;" parent="1" source="dK85CmOqpb26UfGCBJQE-3" target="dK85CmOqpb26UfGCBJQE-5" edge="1">
          <mxGeometry relative="1" as="geometry" />
        </mxCell>
        <mxCell id="dK85CmOqpb26UfGCBJQE-3" value="int number" style="shape=parallelogram;perimeter=parallelogramPerimeter;whiteSpace=wrap;html=1;fixedSize=1;" parent="1" vertex="1">
          <mxGeometry x="350" y="100" width="120" height="60" as="geometry" />
        </mxCell>
        <mxCell id="RIEmbeodb0vYWwOqStsI-1" value="" style="edgeStyle=orthogonalEdgeStyle;rounded=0;orthogonalLoop=1;jettySize=auto;html=1;" edge="1" parent="1" source="dK85CmOqpb26UfGCBJQE-5" target="dK85CmOqpb26UfGCBJQE-17">
          <mxGeometry relative="1" as="geometry" />
        </mxCell>
        <mxCell id="dK85CmOqpb26UfGCBJQE-5" value="int teklik = number % 10;&lt;div&gt;&lt;/div&gt;&lt;div&gt;int onluq = (number / 10) % 10;&lt;/div&gt;&lt;div&gt;int yuzluk = number / 100;&lt;/div&gt;" style="whiteSpace=wrap;html=1;" parent="1" vertex="1">
          <mxGeometry x="310" y="210" width="200" height="60" as="geometry" />
        </mxCell>
        <mxCell id="dK85CmOqpb26UfGCBJQE-16" value="Start" style="rounded=1;whiteSpace=wrap;html=1;" parent="1" vertex="1">
          <mxGeometry x="350" width="120" height="60" as="geometry" />
        </mxCell>
        <mxCell id="dK85CmOqpb26UfGCBJQE-21" value="False" style="edgeStyle=orthogonalEdgeStyle;rounded=0;orthogonalLoop=1;jettySize=auto;html=1;" parent="1" source="dK85CmOqpb26UfGCBJQE-17" target="dK85CmOqpb26UfGCBJQE-20" edge="1">
          <mxGeometry relative="1" as="geometry" />
        </mxCell>
        <mxCell id="dK85CmOqpb26UfGCBJQE-23" value="True" style="edgeStyle=orthogonalEdgeStyle;rounded=0;orthogonalLoop=1;jettySize=auto;html=1;" parent="1" source="dK85CmOqpb26UfGCBJQE-17" target="dK85CmOqpb26UfGCBJQE-22" edge="1">
          <mxGeometry relative="1" as="geometry">
            <Array as="points">
              <mxPoint x="210" y="375" />
              <mxPoint x="210" y="375" />
            </Array>
          </mxGeometry>
        </mxCell>
        <mxCell id="dK85CmOqpb26UfGCBJQE-17" value="(teklik + onluq + yuzluk) % 2 == 0" style="rhombus;whiteSpace=wrap;html=1;" parent="1" vertex="1">
          <mxGeometry x="300" y="330" width="220" height="90" as="geometry" />
        </mxCell>
        <mxCell id="dK85CmOqpb26UfGCBJQE-26" style="edgeStyle=orthogonalEdgeStyle;rounded=0;orthogonalLoop=1;jettySize=auto;html=1;exitX=1;exitY=0.5;exitDx=0;exitDy=0;entryX=1;entryY=0.5;entryDx=0;entryDy=0;" parent="1" source="dK85CmOqpb26UfGCBJQE-20" target="dK85CmOqpb26UfGCBJQE-24" edge="1">
          <mxGeometry relative="1" as="geometry" />
        </mxCell>
        <mxCell id="dK85CmOqpb26UfGCBJQE-20" value="eded tekdir" style="shape=document;whiteSpace=wrap;html=1;boundedLbl=1;" parent="1" vertex="1">
          <mxGeometry x="650" y="335" width="120" height="80" as="geometry" />
        </mxCell>
        <mxCell id="dK85CmOqpb26UfGCBJQE-25" style="edgeStyle=orthogonalEdgeStyle;rounded=0;orthogonalLoop=1;jettySize=auto;html=1;exitX=0;exitY=0.5;exitDx=0;exitDy=0;entryX=0;entryY=0.5;entryDx=0;entryDy=0;" parent="1" source="dK85CmOqpb26UfGCBJQE-22" target="dK85CmOqpb26UfGCBJQE-24" edge="1">
          <mxGeometry relative="1" as="geometry" />
        </mxCell>
        <mxCell id="dK85CmOqpb26UfGCBJQE-22" value="eded cutdur" style="shape=document;whiteSpace=wrap;html=1;boundedLbl=1;" parent="1" vertex="1">
          <mxGeometry x="50" y="350" width="120" height="80" as="geometry" />
        </mxCell>
        <mxCell id="dK85CmOqpb26UfGCBJQE-24" value="End" style="rounded=1;whiteSpace=wrap;html=1;" parent="1" vertex="1">
          <mxGeometry x="350" y="510" width="120" height="60" as="geometry" />
        </mxCell>
      </root>
    </mxGraphModel>
  </diagram>
</mxfile>
